<!--?xml version="1.0" encoding="UTF-8" standalone="no"?-->

<svg version="1.1" xmlns="http://www.w3.org/2000/svg" xmlns:xlink="http://www.w3.org/1999/xlink" preserveAspectRatio="xMidYMid meet" viewBox="0 0 640 640" width="940" height="940" style=""><defs><path d="M418.58 640L517.56 640L439.84 572.37L556.09 482.69L640 640" id="a66y7IBMH" class="sqJcudBS_0"></path><path d="M640 388.35L640 511.25L556.76 482.69L609.91 427.55L522.88 398.31L512.25 515.9L436.51 458.1L332.21 558.42L439.84 572.37L418.58 640" id="a54Gc0KGjB" class="sqJcudBS_1"></path><path d="M640 281.39L560.74 219.08L514.91 286.71L609.24 427.55L640 388.35L640 281.39Z" id="c1ceenez9O" class="sqJcudBS_2"></path><path d="M332.21 558.42L255.81 625.52L304.31 429.54L436.51 458.1L522.88 399.64L433.19 377.72L514.91 288.7" id="bb5fOh2qe" class="sqJcudBS_3"></path><path d="M219.08 640L219.08 631.5L255.81 625.52" id="a2HqtGKgIe" class="sqJcudBS_4"></path><path d="M304.36 427.55L509.78 516.92L332.21 559L598.94 561.34L640 509.78L551.87 343.59L557.57 482.69L518.34 640L494.8 529.76L640 640" id="dS14iJqgq" class="sqJcudBS_5"></path><path d="M638.17 388.35L552.58 343.59L640 280.1L474.83 330.75L609.64 427.55L310.06 575.41L304.36 427.55" id="apjnrSb1D" class="sqJcudBS_6"></path><path d="M448.44 226.61L484.1 248.72L559.71 219.08L640 313.63L598.23 310.78L640 388.35L640 439.88L556.15 482.69L640 552.58L586.82 601.08L514.91 640L394.23 566.85L417.06 640L332.21 559L292.23 640L257.99 625.52" id="a1ldje6cnt" class="sqJcudBS_7"></path><path d="M304.36 256.78L322.9 254.64L363.56 348.79L474.83 330.96" id="ko5T0dL2K" class="sqJcudBS_8"></path><path d="M221.62 415.63L265.84 355.71L304.36 429.54L221.62 415.63Z" id="e6oQ4hidY" class="sqJcudBS_9"></path><path d="M185.99 292.01L180.43 358.81L221.62 414.48" id="bYz1rrrGq" class="sqJcudBS_10"></path><path d="M129.4 564.79L155.38 612.11L184.14 539.74L255.81 625.52" id="b5yjvth8lT" class="sqJcudBS_11"></path><path d="M152.59 414.48L237.45 451.59L173 486.85L152.59 414.48Z" id="aE8wDVyx" class="sqJcudBS_12"></path><path d="M237.45 191.81L240.73 226.14L205.48 219.08L237.45 191.81Z" id="a4hN6jYEwj" class="sqJcudBS_13"></path><path d="M389.59 170.47L449 178.82L348.36 213.15L389.59 170.47Z" id="a4GM4MmUXq" class="sqJcudBS_14"></path><path d="M31.44 250.06L65.5 288.7L31.44 297.03L31.44 250.06Z" id="e1ehpjpm1Y" class="sqJcudBS_15"></path><path d="M162.98 367.5L140.66 315.82L76.07 315.82L162.98 367.5Z" id="a2QOPuZXP" class="sqJcudBS_16"></path><path d="M632.76 110.3L577.45 73.89L494.17 181.94L558.77 219.08" id="o1PbPwJlJg" class="sqJcudBS_17"></path><path d="M494.17 181.94L630.41 110.3" id="a8OimRoC2" class="sqJcudBS_18"></path><path d="M129.4 474.38L11.47 597.69L129.4 565.98L129.4 474.38Z" id="bkLOJ3tKw" class="sqJcudBS_19"></path><path d="" id="b3zKgWqiEj" class="sqJcudBS_20"></path><path d="M442.07 459.03C442.07 461.91 439.73 464.25 436.84 464.25C433.96 464.25 431.62 461.91 431.62 459.03C431.62 456.15 433.96 453.81 436.84 453.81C439.73 453.81 442.07 456.15 442.07 459.03Z" id="chtfCw8Aq" class="sqJcudBS_21"></path><path d="M528.1 399.9C528.1 402.79 525.76 405.13 522.88 405.13C519.99 405.13 517.65 402.79 517.65 399.9C517.65 397.02 519.99 394.68 522.88 394.68C525.76 394.68 528.1 397.02 528.1 399.9Z" id="a2uSdbe5uo" class="sqJcudBS_22"></path><path d="M445.34 572.17C445.34 575.05 443 577.39 440.12 577.39C437.23 577.39 434.89 575.05 434.89 572.17C434.89 569.28 437.23 566.94 440.12 566.94C443 566.94 445.34 569.28 445.34 572.17Z" id="i2O0rTNX6C" class="sqJcudBS_23"></path><path d="M521.71 288.7C521.71 291.58 519.37 293.92 516.49 293.92C513.6 293.92 511.26 291.58 511.26 288.7C511.26 285.82 513.6 283.48 516.49 283.48C519.37 283.48 521.71 285.82 521.71 288.7Z" id="a1PG6fLNvE" class="sqJcudBS_24"></path><path d="M306.98 257.17C306.98 260.05 304.64 262.39 301.75 262.39C298.87 262.39 296.53 260.05 296.53 257.17C296.53 254.28 298.87 251.94 301.75 251.94C304.64 251.94 306.98 254.28 306.98 257.17Z" id="a4DGOfq2fp" class="sqJcudBS_25"></path><path d="M309.58 429.54C309.58 432.42 307.24 434.76 304.36 434.76C301.47 434.76 299.13 432.42 299.13 429.54C299.13 426.66 301.47 424.32 304.36 424.32C307.24 424.32 309.58 426.66 309.58 429.54Z" id="a130vvKbEN" class="sqJcudBS_26"></path><path d="M396.19 170.47C396.19 173.35 393.85 175.69 390.97 175.69C388.09 175.69 385.75 173.35 385.75 170.47C385.75 167.58 388.09 165.24 390.97 165.24C393.85 165.24 396.19 167.58 396.19 170.47Z" id="g4aJCylJgq" class="sqJcudBS_27"></path><path d="M565.41 219.08C565.41 221.96 563.07 224.3 560.18 224.3C557.3 224.3 554.96 221.96 554.96 219.08C554.96 216.19 557.3 213.85 560.18 213.85C563.07 213.85 565.41 216.19 565.41 219.08Z" id="g1Jj28s7hR" class="sqJcudBS_28"></path><path d="M60.76 371.63L81.41 355.71L114.02 405.13L240.73 388.35L304.36 429.54L396.19 414.48L418.58 479.6" id="bpphAaMZ8" class="sqJcudBS_29"></path><path d="M583.22 599.63C583.22 602.51 585.56 604.85 588.44 604.85C591.32 604.85 593.66 602.51 593.66 599.63C593.66 596.75 591.32 594.41 588.44 594.41C585.56 594.41 583.22 596.75 583.22 599.63Z" id="c2Nwpu4jQk" class="sqJcudBS_30"></path><path d="M259.56 623.91C259.56 626.8 257.22 629.14 254.34 629.14C251.46 629.14 249.12 626.8 249.12 623.91C249.12 621.03 251.46 618.69 254.34 618.69C257.22 618.69 259.56 621.03 259.56 623.91Z" id="c1fG1aczy4" class="sqJcudBS_31"></path><path d="M124.17 474.38C124.17 477.26 126.51 479.6 129.4 479.6C132.28 479.6 134.62 477.26 134.62 474.38C134.62 471.49 132.28 469.15 129.4 469.15C126.51 469.15 124.17 471.49 124.17 474.38Z" id="a1Ilp4vwSu" class="sqJcudBS_32"></path><path d="M37.93 443.37L73.8 582.63L129.4 528.15L184.67 539.74L227.07 514.17L309.58 554.24" id="b1eJ8J0pU7" class="sqJcudBS_33"></path></defs><g><g><g><g><use xlink:href="#a66y7IBMH" opacity="1" fill-opacity="0" stroke="#ffe0fb" stroke-width="2" stroke-opacity="1"></use></g></g><g><g><use xlink:href="#a54Gc0KGjB" opacity="1" fill-opacity="0" stroke="#faceff" stroke-width="2" stroke-opacity="1"></use></g></g><g><g><use xlink:href="#c1ceenez9O" opacity="1" fill-opacity="0" stroke="#e3b7ff" stroke-width="2" stroke-opacity="1"></use></g></g><g><g><use xlink:href="#bb5fOh2qe" opacity="1" fill-opacity="0" stroke="#f1cfff" stroke-width="2" stroke-opacity="1"></use></g></g><g><g><use xlink:href="#a2HqtGKgIe" opacity="1" fill-opacity="0" stroke="#e9c6ff" stroke-width="2" stroke-opacity="1"></use></g></g><g><g><use xlink:href="#dS14iJqgq" opacity="0.3" fill-opacity="0" stroke="#f6aeff" stroke-width="1.5" stroke-opacity="1"></use></g></g><g><g><use xlink:href="#apjnrSb1D" opacity="0.42" fill-opacity="0" stroke="#ffb1f9" stroke-width="1.5" stroke-opacity="1"></use></g></g><g><g><use xlink:href="#a1ldje6cnt" opacity="0.52" fill-opacity="0" stroke="#f2d5f3" stroke-width="1.5" stroke-opacity="1"></use></g></g><g><g><use xlink:href="#ko5T0dL2K" opacity="1" fill-opacity="0" stroke="#e9c3f5" stroke-width="1.5" stroke-opacity="1"></use></g></g><g><g><use xlink:href="#e6oQ4hidY" opacity="1" fill-opacity="0" stroke="#e5bcf2" stroke-width="2" stroke-opacity="1"></use></g></g><g><g><use xlink:href="#bYz1rrrGq" opacity="0.92" fill-opacity="0" stroke="#da94ef" stroke-width="2" stroke-opacity="1"></use></g></g><g><g><use xlink:href="#b5yjvth8lT" opacity="1" fill-opacity="0" stroke="#dda3ef" stroke-width="2" stroke-opacity="1"></use></g></g><g><g><use xlink:href="#aE8wDVyx" opacity="0.92" fill-opacity="0" stroke="#dda3ef" stroke-width="2" stroke-opacity="1"></use></g></g><g><g><use xlink:href="#a4hN6jYEwj" opacity="1" fill-opacity="0" stroke="#dda3ef" stroke-width="2" stroke-opacity="1"></use></g></g><g><g><use xlink:href="#a4GM4MmUXq" opacity="0.92" fill-opacity="0" stroke="#dda3ef" stroke-width="2" stroke-opacity="1"></use></g></g><g><g><use xlink:href="#e1ehpjpm1Y" opacity="0.92" fill-opacity="0" stroke="#dda3ef" stroke-width="2" stroke-opacity="1"></use></g></g><g><g><use xlink:href="#a2QOPuZXP" opacity="0.92" fill-opacity="0" stroke="#dda3ef" stroke-width="2" stroke-opacity="1"></use></g></g><g><g><use xlink:href="#o1PbPwJlJg" opacity="0.92" fill-opacity="0" stroke="#dda3ef" stroke-width="2" stroke-opacity="1"></use></g></g><g><g><use xlink:href="#a8OimRoC2" opacity="1" fill-opacity="0" stroke="#dda3ef" stroke-width="2" stroke-opacity="1"></use></g></g><g><g><use xlink:href="#bkLOJ3tKw" opacity="0.92" fill-opacity="0" stroke="#dda3ef" stroke-width="2" stroke-opacity="1"></use></g></g><g><use xlink:href="#b3zKgWqiEj" opacity="1" fill="#52e66d" fill-opacity="1"></use><g><use xlink:href="#b3zKgWqiEj" opacity="1" fill-opacity="0" stroke="#dda3ef" stroke-width="2" stroke-opacity="1"></use></g></g><g><use xlink:href="#chtfCw8Aq" opacity="1" fill="#ffffff" fill-opacity="1"></use><g><use xlink:href="#chtfCw8Aq" opacity="1" fill-opacity="0" stroke="#fdf8ff" stroke-width="2" stroke-opacity="1"></use></g></g><g><use xlink:href="#a2uSdbe5uo" opacity="1" fill="#ffffff" fill-opacity="1"></use><g><use xlink:href="#a2uSdbe5uo" opacity="1" fill-opacity="0" stroke="#fdf8ff" stroke-width="2" stroke-opacity="1"></use></g></g><g><use xlink:href="#i2O0rTNX6C" opacity="1" fill="#ffffff" fill-opacity="1"></use><g><use xlink:href="#i2O0rTNX6C" opacity="1" fill-opacity="0" stroke="#fdf8ff" stroke-width="2" stroke-opacity="1"></use></g></g><g><use xlink:href="#a1PG6fLNvE" opacity="1" fill="#ffffff" fill-opacity="1"></use><g><use xlink:href="#a1PG6fLNvE" opacity="1" fill-opacity="0" stroke="#fdf8ff" stroke-width="2" stroke-opacity="1"></use></g></g><g><use xlink:href="#a4DGOfq2fp" opacity="1" fill="#ffffff" fill-opacity="1"></use><g><use xlink:href="#a4DGOfq2fp" opacity="1" fill-opacity="0" stroke="#fdf8ff" stroke-width="2" stroke-opacity="1"></use></g></g><g><use xlink:href="#a130vvKbEN" opacity="1" fill="#ffffff" fill-opacity="1"></use><g><use xlink:href="#a130vvKbEN" opacity="1" fill-opacity="0" stroke="#fdf8ff" stroke-width="2" stroke-opacity="1"></use></g></g><g><use xlink:href="#g4aJCylJgq" opacity="1" fill="#ffffff" fill-opacity="1"></use><g><use xlink:href="#g4aJCylJgq" opacity="1" fill-opacity="0" stroke="#fdf8ff" stroke-width="2" stroke-opacity="1"></use></g></g><g><use xlink:href="#g1Jj28s7hR" opacity="1" fill="#ffffff" fill-opacity="1"></use><g><use xlink:href="#g1Jj28s7hR" opacity="1" fill-opacity="0" stroke="#fdf8ff" stroke-width="2" stroke-opacity="1"></use></g></g><g><g><use xlink:href="#bpphAaMZ8" opacity="0.28" fill-opacity="0" stroke="#cc9fda" stroke-width="1.5" stroke-opacity="1"></use></g></g><g><use xlink:href="#c2Nwpu4jQk" opacity="1" fill="#ffffff" fill-opacity="1"></use><g><use xlink:href="#c2Nwpu4jQk" opacity="1" fill-opacity="0" stroke="#fdf8ff" stroke-width="2" stroke-opacity="1"></use></g></g><g><use xlink:href="#c1fG1aczy4" opacity="1" fill="#ffffff" fill-opacity="1"></use><g><use xlink:href="#c1fG1aczy4" opacity="1" fill-opacity="0" stroke="#fdf8ff" stroke-width="2" stroke-opacity="1"></use></g></g><g><use xlink:href="#a1Ilp4vwSu" opacity="1" fill="#ffffff" fill-opacity="1"></use><g><use xlink:href="#a1Ilp4vwSu" opacity="1" fill-opacity="0" stroke="#fdf8ff" stroke-width="2" stroke-opacity="1"></use></g></g><g><g><use xlink:href="#b1eJ8J0pU7" opacity="0.44" fill-opacity="0" stroke="#ffccfd" stroke-width="1.5" stroke-opacity="1"></use></g></g></g></g><style data-made-with="vivus-instant">.sqJcudBS_0{stroke-dasharray:528 530;stroke-dashoffset:529;animation:sqJcudBS_draw 1033ms ease-in-out 0ms forwards;}.sqJcudBS_1{stroke-dasharray:917 919;stroke-dashoffset:918;animation:sqJcudBS_draw 1033ms ease-in-out 15ms forwards;}.sqJcudBS_2{stroke-dasharray:509 511;stroke-dashoffset:510;animation:sqJcudBS_draw 1033ms ease-in-out 31ms forwards;}.sqJcudBS_3{stroke-dasharray:757 759;stroke-dashoffset:758;animation:sqJcudBS_draw 1033ms ease-in-out 46ms forwards;}.sqJcudBS_4{stroke-dasharray:46 48;stroke-dashoffset:47;animation:sqJcudBS_draw 1033ms ease-in-out 62ms forwards;}.sqJcudBS_5{stroke-dasharray:1524 1526;stroke-dashoffset:1525;animation:sqJcudBS_draw 1033ms ease-in-out 78ms forwards;}.sqJcudBS_6{stroke-dasharray:1026 1028;stroke-dashoffset:1027;animation:sqJcudBS_draw 1033ms ease-in-out 93ms forwards;}.sqJcudBS_7{stroke-dasharray:1249 1251;stroke-dashoffset:1250;animation:sqJcudBS_draw 1033ms ease-in-out 109ms forwards;}.sqJcudBS_8{stroke-dasharray:234 236;stroke-dashoffset:235;animation:sqJcudBS_draw 1033ms ease-in-out 125ms forwards;}.sqJcudBS_9{stroke-dasharray:242 244;stroke-dashoffset:243;animation:sqJcudBS_draw 1033ms ease-in-out 140ms forwards;}.sqJcudBS_10{stroke-dasharray:137 139;stroke-dashoffset:138;animation:sqJcudBS_draw 1033ms ease-in-out 156ms forwards;}.sqJcudBS_11{stroke-dasharray:244 246;stroke-dashoffset:245;animation:sqJcudBS_draw 1033ms ease-in-out 172ms forwards;}.sqJcudBS_12{stroke-dasharray:242 244;stroke-dashoffset:243;animation:sqJcudBS_draw 1033ms ease-in-out 187ms forwards;}.sqJcudBS_13{stroke-dasharray:113 115;stroke-dashoffset:114;animation:sqJcudBS_draw 1033ms ease-in-out 203ms forwards;}.sqJcudBS_14{stroke-dasharray:226 228;stroke-dashoffset:227;animation:sqJcudBS_draw 1033ms ease-in-out 219ms forwards;}.sqJcudBS_15{stroke-dasharray:134 136;stroke-dashoffset:135;animation:sqJcudBS_draw 1033ms ease-in-out 234ms forwards;}.sqJcudBS_16{stroke-dasharray:222 224;stroke-dashoffset:223;animation:sqJcudBS_draw 1033ms ease-in-out 250ms forwards;}.sqJcudBS_17{stroke-dasharray:278 280;stroke-dashoffset:279;animation:sqJcudBS_draw 1033ms ease-in-out 266ms forwards;}.sqJcudBS_18{stroke-dasharray:154 156;stroke-dashoffset:155;animation:sqJcudBS_draw 1033ms ease-in-out 281ms forwards;}.sqJcudBS_19{stroke-dasharray:385 387;stroke-dashoffset:386;animation:sqJcudBS_draw 1033ms ease-in-out 297ms forwards;}.sqJcudBS_20{stroke-dasharray:0 2;stroke-dashoffset:1;animation:sqJcudBS_draw 1033ms ease-in-out 313ms forwards;}.sqJcudBS_21{stroke-dasharray:33 35;stroke-dashoffset:34;animation:sqJcudBS_draw 1033ms ease-in-out 328ms forwards;}.sqJcudBS_22{stroke-dasharray:33 35;stroke-dashoffset:34;animation:sqJcudBS_draw 1033ms ease-in-out 344ms forwards;}.sqJcudBS_23{stroke-dasharray:33 35;stroke-dashoffset:34;animation:sqJcudBS_draw 1033ms ease-in-out 360ms forwards;}.sqJcudBS_24{stroke-dasharray:33 35;stroke-dashoffset:34;animation:sqJcudBS_draw 1033ms ease-in-out 375ms forwards;}.sqJcudBS_25{stroke-dasharray:33 35;stroke-dashoffset:34;animation:sqJcudBS_draw 1033ms ease-in-out 391ms forwards;}.sqJcudBS_26{stroke-dasharray:33 35;stroke-dashoffset:34;animation:sqJcudBS_draw 1033ms ease-in-out 407ms forwards;}.sqJcudBS_27{stroke-dasharray:33 35;stroke-dashoffset:34;animation:sqJcudBS_draw 1033ms ease-in-out 422ms forwards;}.sqJcudBS_28{stroke-dasharray:33 35;stroke-dashoffset:34;animation:sqJcudBS_draw 1033ms ease-in-out 438ms forwards;}.sqJcudBS_29{stroke-dasharray:451 453;stroke-dashoffset:452;animation:sqJcudBS_draw 1033ms ease-in-out 454ms forwards;}.sqJcudBS_30{stroke-dasharray:33 35;stroke-dashoffset:34;animation:sqJcudBS_draw 1033ms ease-in-out 469ms forwards;}.sqJcudBS_31{stroke-dasharray:33 35;stroke-dashoffset:34;animation:sqJcudBS_draw 1033ms ease-in-out 485ms forwards;}.sqJcudBS_32{stroke-dasharray:33 35;stroke-dashoffset:34;animation:sqJcudBS_draw 1033ms ease-in-out 501ms forwards;}.sqJcudBS_33{stroke-dasharray:420 422;stroke-dashoffset:421;animation:sqJcudBS_draw 1033ms ease-in-out 516ms forwards;}@keyframes sqJcudBS_draw{100%{stroke-dashoffset:0;}}@keyframes sqJcudBS_fade{0%{stroke-opacity:1;}93.04347826086956%{stroke-opacity:1;}100%{stroke-opacity:0;}}</style></svg>