<!--?xml version="1.0" encoding="UTF-8" standalone="no"?-->

<svg version="1.1" xmlns="http://www.w3.org/2000/svg" xmlns:xlink="http://www.w3.org/1999/xlink" preserveAspectRatio="xMidYMid meet" viewBox="128.13978494623655 62.01075268817203 421.1290322580644 495.3978494623657" width="417.13" height="491.4" style=""><defs><path d="M252.72 63.01L422.01 325.38L422.01 63.01L546.27 63.01L546.27 182.37L546.27 554.41L422.01 554.41L254.87 299.57L254.87 554.41L130.14 554.41L130.14 189.89C130.14 123.03 130.14 81.25 130.14 64.53C130.14 63.69 130.82 63.01 131.66 63.01C147.8 63.01 188.16 63.01 252.72 63.01Z" id="bbvr0COadf" class="DKYooXmi_0"></path><path d="M317.31 389.89L362.47 232.9L303.8 190.33L186.13 104.95L129.14 263.01L217.31 161.94" id="aEHArMXWe" class="DKYooXmi_1"></path><path d="M285.05 113.55L162.47 65.16L217.5 158.74L129.14 161.94" id="bKfExVMl5" class="DKYooXmi_2"></path><path d="M254.95 302.8L317.31 246.88L285.05 113.55L217.31 158.71L254.95 302.8Z" id="bk6KBBXZw" class="DKYooXmi_3"></path><path d="M545.27 415.7L343.12 290.97L390.43 500.65L392.37 367.29L393.66 279.14L317.31 389.89L303.33 190.97" id="c720SWjE8R" class="DKYooXmi_4"></path><path d="M467.85 113.55L545.27 63.01L461.4 290.97L424.3 63.01L545.27 218.92L420.54 190.97" id="e185yNtIr8" class="DKYooXmi_5"></path><path d="M175.38 551.18L129.14 471.61L250.65 514.62L132.37 554.41L250.65 359.78L129.14 302.8L250.65 471.61L129.14 403.87L234.52 232.9L129.14 261.94" id="a9vbF6H0f" class="DKYooXmi_6"></path><path d="M420.54 190.97L492.58 380.22L545.27 217.85L420.54 325.38L545.27 485.59L424.3 554.41L545.27 416.77L348.49 441.51" id="frW7SagPn" class="DKYooXmi_7"></path><path d="M390.43 435.05L545.27 552.26" id="h5RomM3G9c" class="DKYooXmi_8"></path></defs><g><g><g><use xlink:href="#bbvr0COadf" opacity="1" fill-opacity="0" stroke="#f0abff" stroke-width="2" stroke-opacity="1"></use></g></g><g><g><use xlink:href="#aEHArMXWe" opacity="0.55" fill-opacity="0" stroke="#ff77f5" stroke-width="1.5" stroke-opacity="1"></use></g></g><g><g><use xlink:href="#bKfExVMl5" opacity="0.32" fill-opacity="0" stroke="#ff77f5" stroke-width="1.5" stroke-opacity="1"></use></g></g><g><g><use xlink:href="#bk6KBBXZw" opacity="0.32" fill-opacity="0" stroke="#ff77f5" stroke-width="1.5" stroke-opacity="1"></use></g></g><g><g><use xlink:href="#c720SWjE8R" opacity="0.32" fill-opacity="0" stroke="#ff77f5" stroke-width="1.5" stroke-opacity="1"></use></g></g><g><g><use xlink:href="#e185yNtIr8" opacity="0.43" fill-opacity="0" stroke="#b777ff" stroke-width="1.5" stroke-opacity="1"></use></g></g><g><g><use xlink:href="#a9vbF6H0f" opacity="0.46" fill-opacity="0" stroke="#cf77ff" stroke-width="1.5" stroke-opacity="1"></use></g></g><g><g><use xlink:href="#frW7SagPn" opacity="0.32" fill-opacity="0" stroke="#ff77f5" stroke-width="1.5" stroke-opacity="1"></use></g></g><g><g><use xlink:href="#h5RomM3G9c" opacity="0.47" fill-opacity="0" stroke="#ff77f5" stroke-width="1.5" stroke-opacity="1"></use></g></g></g><style data-made-with="vivus-instant">.DKYooXmi_0{stroke-dasharray:2613 2615;stroke-dashoffset:2614;animation:DKYooXmi_draw 1200ms ease-in-out 0ms forwards;}.DKYooXmi_1{stroke-dasharray:684 686;stroke-dashoffset:685;animation:DKYooXmi_draw 1200ms ease-in-out 0ms forwards;}.DKYooXmi_2{stroke-dasharray:329 331;stroke-dashoffset:330;animation:DKYooXmi_draw 1200ms ease-in-out 0ms forwards;}.DKYooXmi_3{stroke-dasharray:452 454;stroke-dashoffset:453;animation:DKYooXmi_draw 1200ms ease-in-out 0ms forwards;}.DKYooXmi_4{stroke-dasharray:1008 1010;stroke-dashoffset:1009;animation:DKYooXmi_draw 1200ms ease-in-out 0ms forwards;}.DKYooXmi_5{stroke-dasharray:892 894;stroke-dashoffset:893;animation:DKYooXmi_draw 1200ms ease-in-out 0ms forwards;}.DKYooXmi_6{stroke-dasharray:1365 1367;stroke-dashoffset:1366;animation:DKYooXmi_draw 1200ms ease-in-out 0ms forwards;}.DKYooXmi_7{stroke-dasharray:1262 1264;stroke-dashoffset:1263;animation:DKYooXmi_draw 1200ms ease-in-out 0ms forwards;}.DKYooXmi_8{stroke-dasharray:195 197;stroke-dashoffset:196;animation:DKYooXmi_draw 1200ms ease-in-out 0ms forwards;}@keyframes DKYooXmi_draw{100%{stroke-dashoffset:0;}}@keyframes DKYooXmi_fade{0%{stroke-opacity:1;}92.5925925925926%{stroke-opacity:1;}100%{stroke-opacity:0;}}</style></svg>