<!--?xml version="1.0" encoding="UTF-8" standalone="no"?-->

<svg version="1.1" xmlns="http://www.w3.org/2000/svg" xmlns:xlink="http://www.w3.org/1999/xlink" preserveAspectRatio="xMidYMid meet" viewBox="-6.268817204301051 -1 529.2671826553209 473.90755270327065" width="525.27" height="469.91" style=""><defs><path d="M49.57 123.23L0 39.35L73.23 53.33L0 0" id="a2LwC0pJMr" class="blReUDXZ_0"></path><path d="M244.19 84.52L156.02 0L150.65 54.41L73.23 54.41L49.57 123.23" id="i6ZaIcYtwF" class="blReUDXZ_1"></path><path d="M114.09 123.23L244.19 84.52L150.65 54.41L114.09 123.23Z" id="e22Pd46yur" class="blReUDXZ_2"></path><path d="M60.32 267.31L-5.27 102.8L70 54.41L114.09 123.23L108.71 163.01L262.47 186.67L242.04 84.52" id="c47W7Bx04O" class="blReUDXZ_3"></path><path d="M143.12 285.59L108.71 164.09L60.32 263.01L143.12 285.59Z" id="fqHB42fl8" class="blReUDXZ_4"></path><path d="M179.14 351.18L117.31 404.95L93.66 341.51L0 312.47L60.32 264.09" id="b2fbUzN9k" class="blReUDXZ_5"></path><path d="M339.89 46.88L268.92 0L244.19 82.37L325.91 97.42L262.47 187.74L262.47 282.37L128.6 224.84L219.46 182.37L172.15 104.95" id="cFV9dTYYC" class="blReUDXZ_6"></path><path d="M417.31 254.41L417.31 197.42L339.89 190.97L360.32 126.45L325.91 98.49L339.89 46.88" id="csnwuoYbW" class="blReUDXZ_7"></path><path d="M339.89 192.04L417.31 251.18" id="adyn2YBCH" class="blReUDXZ_8"></path><path d="M490.43 67.31L460.32 79.14L387.2 22.15L339.89 46.88" id="a1DGGUZ3hU" class="blReUDXZ_9"></path><path d="M73.23 414.77L70.28 456.43L15.14 391.48L39.65 325.31L0 224.84L89.57 342.47L101.72 273.85L108.27 164.09L173.22 105.97" id="c28ibilYR2" class="blReUDXZ_10"></path><path d="M16.37 391.48L73.23 414.77" id="f1eQZ4wfH" class="blReUDXZ_11"></path><path d="M505.29 213.8L500.39 105.97L468.53 150.65L505.29 213.8Z" id="k1YNsHIJo" class="blReUDXZ_12"></path><path d="M234.25 338.79L251.64 300.81L203.85 320L234.25 338.79Z" id="b60LVwj1ze" class="blReUDXZ_13"></path><path d="M146.88 469.91L239.39 378L173.22 407.41L146.88 469.91Z" id="a12Vam4FmE" class="blReUDXZ_14"></path><path d="M520 54.41L508.97 0L459.95 31.22L520 54.41Z" id="g1mOImrGrw" class="blReUDXZ_15"></path><path d="M422.68 250.68C422.68 253.92 420.05 256.56 416.81 256.56C413.57 256.56 410.93 253.92 410.93 250.68C410.93 247.44 413.57 244.81 416.81 244.81C420.05 244.81 422.68 247.44 422.68 250.68Z" id="d2x7KEJXfd" class="blReUDXZ_16"></path><path d="M255.94 300.3C255.94 303.55 253.31 306.18 250.07 306.18C246.83 306.18 244.19 303.55 244.19 300.3C244.19 297.06 246.83 294.43 250.07 294.43C253.31 294.43 255.94 297.06 255.94 300.3Z" id="b6G0iPH1rh" class="blReUDXZ_17"></path><path d="M98.36 340.39C98.36 343.63 95.73 346.27 92.48 346.27C89.24 346.27 86.61 343.63 86.61 340.39C86.61 337.15 89.24 334.52 92.48 334.52C95.73 334.52 98.36 337.15 98.36 340.39Z" id="bahDBe8tzP" class="blReUDXZ_18"></path><path d="M393.85 22.33C393.85 25.57 391.22 28.2 387.98 28.2C384.73 28.2 382.1 25.57 382.1 22.33C382.1 19.08 384.73 16.45 387.98 16.45C391.22 16.45 393.85 19.08 393.85 22.33Z" id="apUOxj851" class="blReUDXZ_19"></path><path d="M114.08 163.58C114.08 166.83 111.45 169.46 108.21 169.46C104.96 169.46 102.33 166.83 102.33 163.58C102.33 160.34 104.96 157.71 108.21 157.71C111.45 157.71 114.08 160.34 114.08 163.58Z" id="caLRU563l" class="blReUDXZ_20"></path><path d="M266.64 185.29C266.64 188.6 263.95 191.29 260.64 191.29C257.33 191.29 254.64 188.6 254.64 185.29C254.64 181.98 257.33 179.29 260.64 179.29C263.95 179.29 266.64 181.98 266.64 185.29Z" id="b4lsaIXHI9" class="blReUDXZ_21"></path><path d="M156.25 54.73C156.25 57.98 153.62 60.61 150.38 60.61C147.14 60.61 144.5 57.98 144.5 54.73C144.5 51.49 147.14 48.86 150.38 48.86C153.62 48.86 156.25 51.49 156.25 54.73Z" id="d7OV6kTY2" class="blReUDXZ_22"></path><path d="M417.31 46.88L325.91 99.57L262.47 17.85L203.85 72.69L124.84 0L89.57 88.82L30.22 195.27L0 180.53" id="f3R9Jpnq" class="blReUDXZ_23"></path></defs><g><g><g><use xlink:href="#a2LwC0pJMr" opacity="1" fill-opacity="0" stroke="#fce7ff" stroke-width="2" stroke-opacity="1"></use></g></g><g><g><use xlink:href="#i6ZaIcYtwF" opacity="1" fill-opacity="0" stroke="#fce7ff" stroke-width="2" stroke-opacity="1"></use></g></g><g><g><use xlink:href="#e22Pd46yur" opacity="1" fill-opacity="0" stroke="#fce7ff" stroke-width="2" stroke-opacity="1"></use></g></g><g><g><use xlink:href="#c47W7Bx04O" opacity="1" fill-opacity="0" stroke="#fce7ff" stroke-width="2" stroke-opacity="1"></use></g></g><g><g><use xlink:href="#fqHB42fl8" opacity="1" fill-opacity="0" stroke="#ebccff" stroke-width="1.5" stroke-opacity="1"></use></g></g><g><g><use xlink:href="#b2fbUzN9k" opacity="0.51" fill-opacity="0" stroke="#e3c2ff" stroke-width="2" stroke-opacity="1"></use></g></g><g><g><use xlink:href="#cFV9dTYYC" opacity="1" fill-opacity="0" stroke="#f5dbff" stroke-width="1.5" stroke-opacity="1"></use></g></g><g><g><use xlink:href="#csnwuoYbW" opacity="1" fill-opacity="0" stroke="#efd7ff" stroke-width="1.5" stroke-opacity="1"></use></g></g><g><g><use xlink:href="#adyn2YBCH" opacity="1" fill-opacity="0" stroke="#f0c3ff" stroke-width="1.5" stroke-opacity="1"></use></g></g><g><g><use xlink:href="#a1DGGUZ3hU" opacity="1" fill-opacity="0" stroke="#e1b1ff" stroke-width="1" stroke-opacity="1"></use></g></g><g><g><use xlink:href="#c28ibilYR2" opacity="0.51" fill-opacity="0" stroke="#fdd3ff" stroke-width="1.5" stroke-opacity="1"></use></g></g><g><g><use xlink:href="#f1eQZ4wfH" opacity="0.51" fill-opacity="0" stroke="#fdd3ff" stroke-width="1.5" stroke-opacity="1"></use></g></g><g><g><use xlink:href="#k1YNsHIJo" opacity="0.72" fill-opacity="0" stroke="#ef90ff" stroke-width="1.5" stroke-opacity="1"></use></g></g><g><g><use xlink:href="#b60LVwj1ze" opacity="0.55" fill-opacity="0" stroke="#e699ff" stroke-width="1.5" stroke-opacity="1"></use></g></g><g><g><use xlink:href="#a12Vam4FmE" opacity="0.71" fill-opacity="0" stroke="#df8dff" stroke-width="1.5" stroke-opacity="1"></use></g></g><g><g><use xlink:href="#g1mOImrGrw" opacity="1" fill-opacity="0" stroke="#fdd3ff" stroke-width="1.5" stroke-opacity="1"></use></g></g><g><use xlink:href="#d2x7KEJXfd" opacity="1" fill="#ffffff" fill-opacity="1"></use><g><use xlink:href="#d2x7KEJXfd" opacity="1" fill-opacity="0" stroke="#fee4ff" stroke-width="1.5" stroke-opacity="1"></use></g></g><g><use xlink:href="#b6G0iPH1rh" opacity="1" fill="#ffffff" fill-opacity="1"></use><g><use xlink:href="#b6G0iPH1rh" opacity="1" fill-opacity="0" stroke="#fee4ff" stroke-width="1.5" stroke-opacity="1"></use></g></g><g><use xlink:href="#bahDBe8tzP" opacity="1" fill="#ffffff" fill-opacity="1"></use><g><use xlink:href="#bahDBe8tzP" opacity="1" fill-opacity="0" stroke="#fee4ff" stroke-width="1.5" stroke-opacity="1"></use></g></g><g><use xlink:href="#apUOxj851" opacity="1" fill="#ffffff" fill-opacity="1"></use><g><use xlink:href="#apUOxj851" opacity="1" fill-opacity="0" stroke="#fee4ff" stroke-width="1.5" stroke-opacity="1"></use></g></g><g><use xlink:href="#caLRU563l" opacity="1" fill="#ffffff" fill-opacity="1"></use><g><use xlink:href="#caLRU563l" opacity="1" fill-opacity="0" stroke="#fee4ff" stroke-width="1.5" stroke-opacity="1"></use></g></g><g><use xlink:href="#b4lsaIXHI9" opacity="1" fill="#ffffff" fill-opacity="1"></use><g><use xlink:href="#b4lsaIXHI9" opacity="1" fill-opacity="0" stroke="#fee4ff" stroke-width="1.5" stroke-opacity="1"></use></g></g><g><use xlink:href="#d7OV6kTY2" opacity="1" fill="#ffffff" fill-opacity="1"></use><g><use xlink:href="#d7OV6kTY2" opacity="1" fill-opacity="0" stroke="#fee4ff" stroke-width="1.5" stroke-opacity="1"></use></g></g><g><g><use xlink:href="#f3R9Jpnq" opacity="0.51" fill-opacity="0" stroke="#f9d2ff" stroke-width="1" stroke-opacity="1"></use></g></g></g><style data-made-with="vivus-instant">.blReUDXZ_0{stroke-dasharray:263 265;stroke-dashoffset:264;animation:blReUDXZ_draw 800ms ease-in-out 0ms forwards;}.blReUDXZ_1{stroke-dasharray:328 330;stroke-dashoffset:329;animation:blReUDXZ_draw 800ms ease-in-out 17ms forwards;}.blReUDXZ_2{stroke-dasharray:312 314;stroke-dashoffset:313;animation:blReUDXZ_draw 800ms ease-in-out 34ms forwards;}.blReUDXZ_3{stroke-dasharray:649 651;stroke-dashoffset:650;animation:blReUDXZ_draw 800ms ease-in-out 52ms forwards;}.blReUDXZ_4{stroke-dasharray:323 325;stroke-dashoffset:324;animation:blReUDXZ_draw 800ms ease-in-out 69ms forwards;}.blReUDXZ_5{stroke-dasharray:326 328;stroke-dashoffset:327;animation:blReUDXZ_draw 800ms ease-in-out 86ms forwards;}.blReUDXZ_6{stroke-dasharray:796 798;stroke-dashoffset:797;animation:blReUDXZ_draw 800ms ease-in-out 104ms forwards;}.blReUDXZ_7{stroke-dasharray:301 303;stroke-dashoffset:302;animation:blReUDXZ_draw 800ms ease-in-out 121ms forwards;}.blReUDXZ_8{stroke-dasharray:98 100;stroke-dashoffset:99;animation:blReUDXZ_draw 800ms ease-in-out 139ms forwards;}.blReUDXZ_9{stroke-dasharray:179 181;stroke-dashoffset:180;animation:blReUDXZ_draw 800ms ease-in-out 156ms forwards;}.blReUDXZ_10{stroke-dasharray:721 723;stroke-dashoffset:722;animation:blReUDXZ_draw 800ms ease-in-out 173ms forwards;}.blReUDXZ_11{stroke-dasharray:62 64;stroke-dashoffset:63;animation:blReUDXZ_draw 800ms ease-in-out 191ms forwards;}.blReUDXZ_12{stroke-dasharray:236 238;stroke-dashoffset:237;animation:blReUDXZ_draw 800ms ease-in-out 208ms forwards;}.blReUDXZ_13{stroke-dasharray:130 132;stroke-dashoffset:131;animation:blReUDXZ_draw 800ms ease-in-out 226ms forwards;}.blReUDXZ_14{stroke-dasharray:271 273;stroke-dashoffset:272;animation:blReUDXZ_draw 800ms ease-in-out 243ms forwards;}.blReUDXZ_15{stroke-dasharray:179 181;stroke-dashoffset:180;animation:blReUDXZ_draw 800ms ease-in-out 260ms forwards;}.blReUDXZ_16{stroke-dasharray:37 39;stroke-dashoffset:38;animation:blReUDXZ_draw 800ms ease-in-out 278ms forwards;}.blReUDXZ_17{stroke-dasharray:37 39;stroke-dashoffset:38;animation:blReUDXZ_draw 800ms ease-in-out 295ms forwards;}.blReUDXZ_18{stroke-dasharray:37 39;stroke-dashoffset:38;animation:blReUDXZ_draw 800ms ease-in-out 313ms forwards;}.blReUDXZ_19{stroke-dasharray:37 39;stroke-dashoffset:38;animation:blReUDXZ_draw 800ms ease-in-out 330ms forwards;}.blReUDXZ_20{stroke-dasharray:37 39;stroke-dashoffset:38;animation:blReUDXZ_draw 800ms ease-in-out 347ms forwards;}.blReUDXZ_21{stroke-dasharray:38 40;stroke-dashoffset:39;animation:blReUDXZ_draw 800ms ease-in-out 365ms forwards;}.blReUDXZ_22{stroke-dasharray:37 39;stroke-dashoffset:38;animation:blReUDXZ_draw 800ms ease-in-out 382ms forwards;}.blReUDXZ_23{stroke-dasharray:648 650;stroke-dashoffset:649;animation:blReUDXZ_draw 800ms ease-in-out 400ms forwards;}@keyframes blReUDXZ_draw{100%{stroke-dashoffset:0;}}@keyframes blReUDXZ_fade{0%{stroke-opacity:1;}92.5925925925926%{stroke-opacity:1;}100%{stroke-opacity:0;}}</style></svg>